<svg width="35" height="50" viewBox="0 0 35 50" fill="none" xmlns="http://www.w3.org/2000/svg">
<path d="M17.5 0C7.825 0 0 7.825 0 17.5C0 21.85 1.25 25.925 3.525 29.6C5.9 33.45 9.025 36.75 11.425 40.6C12.6 42.475 13.45 44.225 14.35 46.25C15 47.625 15.525 50 17.5 50C19.475 50 20 47.625 20.625 46.25C21.55 44.225 22.375 42.475 23.55 40.6C25.95 36.775 29.075 33.475 31.45 29.6C33.75 25.925 35 21.85 35 17.5C35 7.825 27.175 0 17.5 0ZM17.5 24.375C14.05 24.375 11.25 21.575 11.25 18.125C11.25 14.675 14.05 11.875 17.5 11.875C20.95 11.875 23.75 14.675 23.75 18.125C23.75 21.575 20.95 24.375 17.5 24.375Z" fill="black"/>
</svg>
